<svg xmlns="http://www.w3.org/2000/svg" xmlns:xlink="http://www.w3.org/1999/xlink" width="142px" height="30px" version="1.1" viewBox="0 0 142 30">
  <defs/>
  <g id="Page-1" fill="none" fill-rule="evenodd" stroke="none" stroke-width="1">
    <g id="home" fill="#FFFFFF" transform="translate(-379.000000, -347.000000)">
      <g id="contracts_blue" transform="translate(379.000000, 347.000000)">
        <path id="Contracts" fill-rule="nonzero" d="M49.5172121,22.7018182 C45.3015358,22.7018182 42.3269231,19.6018182 42.3269231,15.4418182 C42.3269231,11.3218182 45.3212352,8.18181818 49.5369115,8.18181818 C53.0828075,8.18181818 55.5649346,10.4018182 56.2741138,13.4018182 L53.4373971,13.4018182 C52.9252121,11.7818182 51.428056,10.7218182 49.5369115,10.7218182 C46.9365878,10.7218182 45.0454433,12.7418182 45.0454433,15.4418182 C45.0454433,18.1818182 46.9365878,20.1618182 49.5369115,20.1618182 C51.4083566,20.1618182 52.9252121,19.1218182 53.4767959,17.5218182 L56.3529115,17.5218182 C55.6831312,20.5418182 53.063108,22.7018182 49.5172121,22.7018182 Z M63.5235011,22.7018182 C60.2730965,22.7018182 58.007663,20.3218182 58.007663,17.1818182 C58.007663,14.0618182 60.2533971,11.6618182 63.5235011,11.6618182 C66.7739057,11.6618182 69.0393393,14.0618182 69.0393393,17.1818182 C69.0393393,20.3018182 66.7542063,22.7018182 63.5235011,22.7018182 Z M63.5235011,20.3418182 C65.2176514,20.3418182 66.4390156,19.0218182 66.4390156,17.1818182 C66.4390156,15.3618182 65.2176514,14.0218182 63.5235011,14.0218182 C61.8096514,14.0218182 60.6079867,15.3618182 60.6079867,17.1818182 C60.6079867,19.0418182 61.8293508,20.3418182 63.5235011,20.3418182 Z M71.3047728,22.4418182 L71.3047728,11.9218182 L73.7475011,11.9218182 L73.7475011,13.2018182 L73.8853971,13.2018182 C74.2990849,12.4218182 75.3234549,11.6618182 76.8009115,11.6618182 C79.1254433,11.6618182 80.5438017,13.3218182 80.5438017,15.5618182 L80.5438017,22.4418182 L77.9828768,22.4418182 L77.9828768,16.2418182 C77.9828768,14.9618182 77.1752005,14.1018182 75.9932352,14.1018182 C74.7521716,14.1018182 73.8656976,15.1018182 73.8656976,16.4218182 L73.8656976,22.4418182 L71.3047728,22.4418182 Z M87.655293,22.4418182 C85.508056,22.4418182 84.2078942,21.2018182 84.2078942,18.9418182 L84.2078942,14.0018182 L82.4546456,14.0018182 L82.4546456,11.9418182 L83.6169115,11.9418182 C84.0699982,11.9418182 84.3654896,11.6418182 84.3654896,11.1418182 L84.3654896,9.02181818 L86.768819,9.02181818 L86.768819,11.9218182 L89.6252352,11.9218182 L89.6252352,14.0018182 L86.768819,14.0018182 L86.768819,18.8418182 C86.768819,19.7218182 87.2022063,20.2818182 88.1871774,20.2818182 L89.5661369,20.2818182 L89.5661369,22.4418182 L87.655293,22.4418182 Z M91.7921716,22.4418182 L91.7921716,11.9218182 L94.2152005,11.9218182 L94.2152005,13.6418182 L94.3727959,13.6418182 C94.7076861,12.8218182 95.6532583,11.8818182 97.0913161,11.8818182 L98.0368884,11.8818182 L98.0368884,14.3618182 L96.9731196,14.3618182 C95.3380676,14.3618182 94.3530965,15.5818182 94.3530965,17.4618182 L94.3530965,22.4418182 L91.7921716,22.4418182 Z M104.12401,22.7018182 C101.228195,22.7018182 99.2385531,20.5018182 99.2385531,17.2418182 C99.2385531,13.9418182 101.208495,11.6618182 104.045212,11.6618182 C105.837859,11.6618182 106.84253,12.7418182 107.19712,13.2818182 L107.335016,13.2818182 L107.335016,11.9218182 L109.89594,11.9218182 L109.89594,22.4418182 L107.374414,22.4418182 L107.374414,21.1018182 L107.236518,21.1018182 C106.941027,21.5418182 106.015154,22.7018182 104.12401,22.7018182 Z M104.616495,20.3618182 C106.330345,20.3618182 107.394114,18.9618182 107.394114,17.2018182 C107.394114,15.2218182 106.212149,14.0218182 104.596796,14.0218182 C102.961744,14.0218182 101.838877,15.3418182 101.838877,17.2018182 C101.838877,19.1018182 102.961744,20.3618182 104.616495,20.3618182 Z M117.283224,22.7018182 C114.032819,22.7018182 111.865883,20.2818182 111.865883,17.1818182 C111.865883,14.0818182 114.032819,11.6618182 117.283224,11.6618182 C119.942646,11.6618182 122.011085,13.3218182 122.405073,15.8018182 L119.78505,15.8018182 C119.469859,14.7618182 118.504588,14.0218182 117.302923,14.0218182 C115.569374,14.0218182 114.466206,15.4218182 114.466206,17.1818182 C114.466206,19.0018182 115.628472,20.3418182 117.322622,20.3418182 C118.504588,20.3418182 119.469859,19.6618182 119.765351,18.6418182 L122.385374,18.6418182 C121.991386,21.0818182 119.942646,22.7018182 117.283224,22.7018182 Z M129.161975,22.4418182 C127.014738,22.4418182 125.714576,21.2018182 125.714576,18.9418182 L125.714576,14.0018182 L123.961328,14.0018182 L123.961328,11.9418182 L125.123594,11.9418182 C125.57668,11.9418182 125.872172,11.6418182 125.872172,11.1418182 L125.872172,9.02181818 L128.275501,9.02181818 L128.275501,11.9218182 L131.131917,11.9218182 L131.131917,14.0018182 L128.275501,14.0018182 L128.275501,18.8418182 C128.275501,19.7218182 128.708888,20.2818182 129.693859,20.2818182 L131.072819,20.2818182 L131.072819,22.4418182 L129.161975,22.4418182 Z M137.002345,22.7018182 C134.205027,22.7018182 132.806368,21.3618182 132.707871,19.2818182 L135.071802,19.2818182 C135.170299,20.1818182 135.879478,20.6618182 137.041744,20.6618182 C138.223709,20.6618182 138.89349,20.1418182 138.89349,19.4018182 C138.89349,17.1618182 132.944264,19.2818182 132.944264,14.8818182 C132.944264,13.1018182 134.46112,11.6618182 137.022044,11.6618182 C139.267779,11.6618182 140.942229,12.8218182 141.099825,14.9218182 L138.834391,14.9218182 C138.716195,14.1618182 138.125212,13.6618182 137.002345,13.6618182 C135.958276,13.6618182 135.288495,14.1218182 135.288495,14.8018182 C135.288495,16.8018182 141.375617,14.7018182 141.375617,19.2618182 C141.375617,21.2618182 139.779964,22.7018182 137.002345,22.7018182 Z"/>
        <g id="ic/-audits-copy-7">
          <path id="Combined-Shape" d="M18.5216084,29.4545455 L10.9713986,25.1011047 L10.9713986,0 L18.5216084,4.35338182 L18.5216084,29.4545455 Z M7.55020979,29.4545455 L0,25.1011047 L0,0 L7.55020979,4.35338182 L7.55020979,29.4545455 Z M29.493007,29.4545455 L21.9427972,25.1011047 L21.9427972,0 L29.493007,4.35338182 L29.493007,29.4545455 Z"/>
        </g>
      </g>
    </g>
  </g>
</svg>
