<svg xmlns="http://www.w3.org/2000/svg" xmlns:xlink="http://www.w3.org/1999/xlink" width="113px" height="22px" version="1.1" viewBox="0 0 113 22">
<!--Generator: Sketch 51.3 (57544) - http://www.bohemiancoding.com/sketch-->
  <desc>
    Created with Sketch.
  </desc>
  <defs/>
  <g id="Page-1" fill="none" fill-rule="evenodd" stroke="none" stroke-width="1">
    <g id="home" transform="translate(-52.000000, -195.000000)">
      <g id="OZ_subbrand_name_sk_dark" transform="translate(51.000000, 195.000000)">
        <path id="StarterKits" fill="#FFFFFF" fill-rule="nonzero" d="M34.9355627,16.4022222 C32.589582,16.4022222 31.0353698,15.0088889 31.0353698,12.9702222 L32.9268167,12.9702222 C32.9414791,13.8942222 33.7039228,14.6128889 34.9942122,14.6128889 C36.0938907,14.6128889 36.7976849,14.1435556 36.7976849,13.3662222 C36.7976849,11.0195556 31.3432797,12.9115556 31.3432797,8.71688889 C31.3432797,7.08888889 32.6335691,5.75422222 34.8915756,5.75422222 C36.841672,5.75422222 38.4985209,6.78088889 38.5571704,8.92222222 L36.607074,8.92222222 C36.5924116,8.07155556 35.991254,7.49955556 34.8915756,7.49955556 C33.8065595,7.49955556 33.2787138,8.04222222 33.2787138,8.68755556 C33.2787138,10.8288889 38.8064309,9.06888889 38.8064309,13.2195556 C38.8064309,15.0382222 37.3988424,16.4022222 34.9355627,16.4022222 Z M43.8063023,16.2115556 C42.2081029,16.2115556 41.2403859,15.3022222 41.2403859,13.6448889 L41.2403859,10.0222222 L39.9354341,10.0222222 L39.9354341,8.51155556 L40.8005145,8.51155556 C41.1377492,8.51155556 41.3576849,8.29155556 41.3576849,7.92488889 L41.3576849,6.37022222 L43.1464952,6.37022222 L43.1464952,8.49688889 L45.2725402,8.49688889 L45.2725402,10.0222222 L43.1464952,10.0222222 L43.1464952,13.5715556 C43.1464952,14.2168889 43.4690675,14.6275556 44.2021865,14.6275556 L45.2285531,14.6275556 L45.2285531,16.2115556 L43.8063023,16.2115556 Z M50.0378135,16.4022222 C47.8824437,16.4022222 46.4015434,14.7888889 46.4015434,12.3982222 C46.4015434,9.97822222 47.8677814,8.30622222 49.979164,8.30622222 C51.3134405,8.30622222 52.0612219,9.09822222 52.3251447,9.49422222 L52.4277814,9.49422222 L52.4277814,8.49688889 L54.3338907,8.49688889 L54.3338907,16.2115556 L52.4571061,16.2115556 L52.4571061,15.2288889 L52.3544695,15.2288889 C52.1345338,15.5515556 51.4454019,16.4022222 50.0378135,16.4022222 Z M50.404373,14.6862222 C51.68,14.6862222 52.4717685,13.6595556 52.4717685,12.3688889 C52.4717685,10.9168889 51.5920257,10.0368889 50.3897106,10.0368889 C49.1727331,10.0368889 48.3369775,11.0048889 48.3369775,12.3688889 C48.3369775,13.7622222 49.1727331,14.6862222 50.404373,14.6862222 Z M56.2839871,16.2115556 L56.2839871,8.49688889 L58.0874598,8.49688889 L58.0874598,9.75822222 L58.2047588,9.75822222 C58.4540193,9.15688889 59.1578135,8.46755556 60.2281672,8.46755556 L60.9319614,8.46755556 L60.9319614,10.2862222 L60.1401929,10.2862222 C58.9232154,10.2862222 58.1900965,11.1808889 58.1900965,12.5595556 L58.1900965,16.2115556 L56.2839871,16.2115556 Z M65.9904823,16.2115556 C64.392283,16.2115556 63.4245659,15.3022222 63.4245659,13.6448889 L63.4245659,10.0222222 L62.1196141,10.0222222 L62.1196141,8.51155556 L62.9846945,8.51155556 C63.3219293,8.51155556 63.541865,8.29155556 63.541865,7.92488889 L63.541865,6.37022222 L65.3306752,6.37022222 L65.3306752,8.49688889 L67.4567203,8.49688889 L67.4567203,10.0222222 L65.3306752,10.0222222 L65.3306752,13.5715556 C65.3306752,14.2168889 65.6532476,14.6275556 66.3863666,14.6275556 L67.4127331,14.6275556 L67.4127331,16.2115556 L65.9904823,16.2115556 Z M72.471254,16.4022222 C70.1985852,16.4022222 68.5857235,14.7008889 68.5857235,12.3982222 C68.5857235,9.96355556 70.2132476,8.30622222 72.471254,8.30622222 C74.9491961,8.30622222 76.298135,10.1395556 76.298135,12.3102222 L76.298135,12.9115556 L70.4331833,12.9115556 C70.4918328,14.0848889 71.2982637,14.8768889 72.5299035,14.8768889 C73.4682958,14.8768889 74.1867524,14.4368889 74.4506752,13.8062222 L76.2248232,13.8062222 C75.8436013,15.3755556 74.4653376,16.4022222 72.471254,16.4022222 Z M70.462508,11.5622222 L74.48,11.5622222 C74.3920257,10.5208889 73.5855949,9.83155556 72.471254,9.83155556 C71.4009003,9.83155556 70.5798071,10.5942222 70.462508,11.5622222 Z M77.9843087,16.2115556 L77.9843087,8.49688889 L79.7877814,8.49688889 L79.7877814,9.75822222 L79.9050804,9.75822222 C80.1543408,9.15688889 80.858135,8.46755556 81.9284887,8.46755556 L82.632283,8.46755556 L82.632283,10.2862222 L81.8405145,10.2862222 C80.623537,10.2862222 79.890418,11.1808889 79.890418,12.5595556 L79.890418,16.2115556 L77.9843087,16.2115556 Z M96.2829582,16.2115556 L94.0102894,16.2115556 L91.3417363,11.6502222 L90.1834084,12.9995556 L90.1834084,16.2115556 L88.2333119,16.2115556 L88.2333119,5.94488889 L90.1834084,5.94488889 L90.1834084,10.2715556 L90.2713826,10.2715556 L93.7756913,5.94488889 L96.1949839,5.94488889 L92.6760129,10.0808889 L96.2829582,16.2115556 Z M98.6142765,7.47022222 C97.9251447,7.47022222 97.4412862,7.04488889 97.4412862,6.35555556 C97.4412862,5.69555556 97.9251447,5.25555556 98.6142765,5.25555556 C99.3034084,5.25555556 99.7872669,5.69555556 99.7872669,6.35555556 C99.7872669,7.04488889 99.3034084,7.47022222 98.6142765,7.47022222 Z M97.6612219,16.2115556 L97.6612219,8.49688889 L99.5673312,8.49688889 L99.5673312,16.2115556 L97.6612219,16.2115556 Z M104.86045,16.2115556 C103.262251,16.2115556 102.294534,15.3022222 102.294534,13.6448889 L102.294534,10.0222222 L100.989582,10.0222222 L100.989582,8.51155556 L101.854662,8.51155556 C102.191897,8.51155556 102.411833,8.29155556 102.411833,7.92488889 L102.411833,6.37022222 L104.200643,6.37022222 L104.200643,8.49688889 L106.326688,8.49688889 L106.326688,10.0222222 L104.200643,10.0222222 L104.200643,13.5715556 C104.200643,14.2168889 104.523215,14.6275556 105.256334,14.6275556 L106.282701,14.6275556 L106.282701,16.2115556 L104.86045,16.2115556 Z M110.696077,16.4022222 C108.614019,16.4022222 107.57299,15.4195556 107.499678,13.8942222 L109.259164,13.8942222 C109.332476,14.5542222 109.860322,14.9062222 110.725402,14.9062222 C111.605145,14.9062222 112.103666,14.5248889 112.103666,13.9822222 C112.103666,12.3395556 107.675627,13.8942222 107.675627,10.6675556 C107.675627,9.36222222 108.80463,8.30622222 110.71074,8.30622222 C112.382251,8.30622222 113.628553,9.15688889 113.745852,10.6968889 L112.059678,10.6968889 C111.971704,10.1395556 111.531833,9.77288889 110.696077,9.77288889 C109.918971,9.77288889 109.42045,10.1102222 109.42045,10.6088889 C109.42045,12.0755556 113.951125,10.5355556 113.951125,13.8795556 C113.951125,15.3462222 112.763473,16.4022222 110.696077,16.4022222 Z"/>
        <g id="Group-57">
          <g id="Mask" fill="#FFFFFF" fill-opacity="0" fill-rule="nonzero">
            <rect id="path-1" width="21.9935691" height="22" x="0" y="0"/>
          </g>
          <g id="Combined-Shape-Clipped">
            <g>
              <rect id="path-1" width="21.9935691" height="22" x="0" y="0"/>
              <path id="Combined-Shape" fill="#FFFFFF" fill-rule="nonzero" d="M9.76240661,2.20268248e-13 L9.76240661,9.85481081 L1.09957787,14.7822162 L1.09957787,4.9274054 L9.76240661,2.20268248e-13 Z M12.337597,-4.40536496e-13 L21.0002246,4.9274054 L21.0002246,16.2469009 L11.049871,21.9066486 L2.38724345,16.9792432 L12.337597,11.3192973 L12.337597,-4.40536496e-13 Z"/>
            </g>
          </g>
        </g>
      </g>
    </g>
  </g>
</svg>
