<svg xmlns="http://www.w3.org/2000/svg" xmlns:xlink="http://www.w3.org/1999/xlink" width="80px" height="28px" version="1.1" viewBox="0 0 80 28">
<!--Generator: Sketch 51.3 (57544) - http://www.bohemiancoding.com/sketch-->
  <desc>
    Created with Sketch.
  </desc>
  <defs/>
  <g id="Page-1" fill="none" fill-rule="evenodd" stroke="none" stroke-width="1">
    <g id="home" fill="#FFFFFF" transform="translate(-624.000000, -348.000000)">
      <g id="sdk_dark-copy" transform="translate(624.000000, 347.000000)">
        <path id="SDK" fill-rule="nonzero" d="M47.0584362,22.9266667 C43.8979424,22.9266667 41.8041152,21.0266667 41.8041152,18.2466667 L44.3522634,18.2466667 C44.3720165,19.5066667 45.399177,20.4866667 47.1374486,20.4866667 C48.61893,20.4866667 49.5670782,19.8466667 49.5670782,18.7866667 C49.5670782,15.5866667 42.21893,18.1666667 42.21893,12.4466667 C42.21893,10.2266667 43.9572016,8.40666667 46.999177,8.40666667 C49.6263374,8.40666667 51.8584362,9.80666667 51.9374486,12.7266667 L49.3102881,12.7266667 C49.290535,11.5666667 48.4806584,10.7866667 46.999177,10.7866667 C45.5374486,10.7866667 44.8263374,11.5266667 44.8263374,12.4066667 C44.8263374,15.3266667 52.273251,12.9266667 52.273251,18.5866667 C52.273251,21.0666667 50.3769547,22.9266667 47.0584362,22.9266667 Z M54.6041152,22.6666667 L54.6041152,8.66666667 L59.2658436,8.66666667 C63.6707819,8.66666667 66.3176955,11.5466667 66.3176955,15.6266667 C66.3176955,19.9666667 63.6707819,22.6666667 59.2658436,22.6666667 L54.6041152,22.6666667 Z M57.2312757,20.3466667 L59.1670782,20.3466667 C61.5967078,20.3466667 63.5917695,18.9066667 63.5917695,15.6266667 C63.5917695,12.4866667 61.6164609,10.9866667 59.1670782,10.9866667 L57.2312757,10.9866667 L57.2312757,20.3466667 Z M79.5720165,22.6666667 L76.5102881,22.6666667 L72.9152263,16.4466667 L71.3547325,18.2866667 L71.3547325,22.6666667 L68.727572,22.6666667 L68.727572,8.66666667 L71.3547325,8.66666667 L71.3547325,14.5666667 L71.473251,14.5666667 L76.1942387,8.66666667 L79.4534979,8.66666667 L74.7127572,14.3066667 L79.5720165,22.6666667 Z"/>
        <g id="ic/-audits-copy-2">
          <path id="Combined-Shape" d="M14.9152542,20.29038 L21.7470373,16.68 L29.8305085,20.95182 L14.9152542,28.83414 L0,20.95182 L8.08347119,16.68 L14.9152542,20.29038 Z M14.9152542,1.2 L29.8305085,9.08226 L14.9152542,16.96452 L0,9.08226 L14.9152542,1.2 Z"/>
        </g>
      </g>
    </g>
  </g>
</svg>
