<?xml version="1.0" encoding="utf-8"?>
<!-- Generator: Adobe Illustrator 25.0.1, SVG Export Plug-In . SVG Version: 6.00 Build 0)  -->
<svg version="1.1" id="Layer_1" xmlns="http://www.w3.org/2000/svg" xmlns:xlink="http://www.w3.org/1999/xlink" x="0px" y="0px"
	 viewBox="0 0 390 100" style="enable-background:new 0 0 390 100;" xml:space="preserve">
<style type="text/css">
	.st0{clip-path:url(#SVGID_2_);}
	.st1{fill:#5E464D;}
	.st2{fill:#FFFFFF;}
	.st3{fill:#3FE0C5;}
	.st4{fill:#EDCF00;}
	.st5{fill:none;stroke:#FFF100;stroke-width:2;stroke-opacity:0.5;}
	.st6{fill:#FFF100;}
	.st7{fill:url(#SVGID_3_);}
	.st8{fill:url(#SVGID_4_);}
	.st9{fill:url(#SVGID_5_);}
	.st10{fill:#0A0A0A;}
	.st11{fill:#4B4D4D;}
</style>
<g>
	<defs>
		<rect id="SVGID_1_" width="390" height="100"/>
	</defs>
	<clipPath id="SVGID_2_">
		<use xlink:href="#SVGID_1_"  style="overflow:visible;"/>
	</clipPath>
	<g class="st0">
		<path class="st1" d="M49.9,91.9c22.6,0,41-18.6,41-41.5S72.5,9,49.9,9c-22.6,0-41,18.6-41,41.5S27.3,91.9,49.9,91.9z"/>
		<path class="st2" d="M37,87.2c1.7,0.6,7.3,2.4,7.5,0.6c0.1-1-2.8-2-6.9-4.1c-5.7-3-11-6.9-15.5-11.5c-6.7-6.5-10.5-15.5-10.7-24.8
			C11.1,34.9,16,24.7,24.1,18.2c-4.9,3.8-8.8,8.6-11.6,14.1S8.2,43.8,8,49.9c-0.2,9.1,2.3,16.7,7.1,23.7c1.5,1.9,3.2,3.6,5.1,5.1
			C24.8,82.2,31.5,85.3,37,87.2"/>
		<path class="st2" d="M91.5,40.9c-2.5-12-10.4-20.3-21-26.2c8.1,5.8,19.5,18,12.8,28.8c-5.7,8.6-19.5,7-27.1,2.8
			c-9-4.9-20.2-15.8-9.1-26.6c7.2-6.9,30.1,0.8,26,11.2c-2.3,6-11.5,4.7-15.6,1.7c-3-2.2-5.6-5.9-4.2-9.8c0.4-1.2,0.4-3.2-1.4-1.7
			c-1.3,1.1-2,2.8-2.2,4.4c-1.9,13.5,22.2,24,29.3,10.9c3.7-6.8-2.3-16.7-9.9-20.7c-5.7-3-11.6-5.2-18.9-4.7
			C38.6,12,28.9,19.3,27.7,31.1c-1.2,11.8,6.7,22.4,15.9,28.7c9.7,6.7,22.8,11.1,34.8,7.1C89.2,63.3,93.6,51,91.5,40.9"/>
		<path class="st3" d="M76.3,31.8C77.5,24,70.5,18.7,64,16.3c-7.6-2.8-17.7-1.6-23.3,4.7c-4.1,4.6-3.8,11.4-1.7,16.8
			c3.2,8.2,10.3,14.2,18.6,16.8c5.9,1.8,13.1,2.6,19.1,0.7c8.7-2.8,11.6-11.9,9.8-20.3c-0.4-1.8-1-3.6-1.8-5.2
			c-1.1-2.3-4.5-7,0.2-1.3c0.5,0.6,0.9,1.3,1.3,2c1,1.6,1.7,3.3,2.3,5c2.5,7.8,0.5,16.9-6.5,21.6c-5.4,3.6-12.3,4-18.5,3.1
			C55.1,59,47.2,55,41.7,48.4c-5-6-8.5-14.5-6.4-22.3c1.5-5.7,6.2-10,11.7-11.8c7-2.3,14.8-1.2,21.1,2.5c3.2,1.8,6.1,4.4,7.7,7.8
			c0.7,1.5,1.1,3.2,1.2,4.8c0,0.7,0,1.4-0.2,2C76.8,31.7,76.3,32.4,76.3,31.8"/>
		<path class="st4" d="M275,50c0-27.6-22.4-50-50-50h-61c-27.6,0-50,22.4-50,50l0,0c0,27.6,22.4,50,50,50h61
			C252.6,100,275,77.6,275,50L275,50z"/>
		<path class="st5" d="M225,1h-61c-27.1,0-49,21.9-49,49s21.9,49,49,49h61c27.1,0,49-21.9,49-49S252.1,1,225,1z"/>
		<g>
			<circle class="st2" cx="225" cy="50" r="40"/>
		</g>
		<g>
			<path class="st6" d="M384.8,73.7c-0.1-0.1-0.1-0.1-0.2-0.2c-0.6-0.6-1.9-1.1-3.8-1.6c-2.7-0.7-6.6-1.3-11.4-1.8
				c-2.2-0.2-4.4,0.5-6,1.9l0,0c-3,2.6-6.8,4.1-10.8,4.1h-25.2c-4,0-7.9-1.4-10.8-4.1c-1.6-1.4-3.8-2.1-6-1.9
				c-4.8,0.5-8.7,1.1-11.4,1.8c-1.9,0.5-3.4,1.2-4.1,1.8c-0.1-0.2-0.2-0.5-0.2-0.7v-4.2c0-0.8,1.3-1.5,3.8-2.2v-5.3
				c0-16.8,10.9-31.7,27.3-37.4l0.2-1c0.2-1.2,1-2.1,2.2-2.4c7.6-2.2,15.7-2.2,23.3,0c1.2,0.3,2,1.3,2.2,2.4l0.2,1.1
				c16.3,5.7,27.1,20.6,27.1,37.3l-0.1,5.3c2.5,0.7,3.8,1.4,3.8,2.2V73C385,73.2,384.9,73.5,384.8,73.7z"/>
			
				<linearGradient id="SVGID_3_" gradientUnits="userSpaceOnUse" x1="-8085.501" y1="-8199.6152" x2="-8085.501" y2="-8055.835" gradientTransform="matrix(0.3082 0 0 -0.2968 2804.4927 -2367.4263)">
				<stop  offset="0" style="stop-color:#EDCF00"/>
				<stop  offset="0.33" style="stop-color:#F0D500"/>
				<stop  offset="0.77" style="stop-color:#F9E500"/>
				<stop  offset="1" style="stop-color:#FFF100"/>
			</linearGradient>
			<path class="st7" d="M298.7,66.5L298.7,66.5v-5.3c0-16.8,10.9-31.7,27.3-37.4c-5.9,9.2-9.5,22.5-9.5,37.3c0,1,0,2,0.1,2.9
				C308.7,64.6,302.5,65.5,298.7,66.5z"/>
			
				<linearGradient id="SVGID_4_" gradientUnits="userSpaceOnUse" x1="-7877.481" y1="-8200.665" x2="-7877.481" y2="-8096.6748" gradientTransform="matrix(0.3082 0 0 -0.2968 2804.4927 -2367.4263)">
				<stop  offset="0" style="stop-color:#EDCF00"/>
				<stop  offset="0.59" style="stop-color:#F7E100"/>
				<stop  offset="1" style="stop-color:#FFF100"/>
			</linearGradient>
			<path class="st8" d="M381.1,66.5c-1.8-0.5-3.7-0.9-5.5-1.1c0.1-1.4,0.1-2.8,0.1-4.3c0-9.1-1.4-17.7-3.9-25.1
				c6.1,7.1,9.4,16,9.4,25.3L381.1,66.5z"/>
			
				<radialGradient id="SVGID_5_" cx="-7995.3359" cy="-8297.9053" r="108.86" gradientTransform="matrix(0.3082 0 0 -0.2968 2804.4927 -2367.4263)" gradientUnits="userSpaceOnUse">
				<stop  offset="0" style="stop-color:#FFF100"/>
				<stop  offset="0.23" style="stop-color:#F9E500"/>
				<stop  offset="0.67" style="stop-color:#F0D500"/>
				<stop  offset="1" style="stop-color:#EDCF00"/>
			</radialGradient>
			<path class="st9" d="M384.6,73.5c0.1,0.1,0.1,0.1,0.2,0.2c-1.9,2.8-21.3,5.8-44.8,5.8s-42.9-3-44.8-5.8c0.6-0.6,2.1-1.3,4.1-1.8
				c2.7-0.7,6.6-1.3,11.4-1.8c2.2-0.2,4.4,0.5,6,1.9c3,2.6,6.8,4.1,10.8,4.1h25.2c4,0,7.9-1.4,10.8-4.1l0,0c1.6-1.4,3.8-2.1,6-1.9
				c4.8,0.5,8.7,1.1,11.4,1.8C382.7,72.4,384,73,384.6,73.5z"/>
			<polygon class="st10" points="340,31.3 340,52.9 340,52.9 330.3,47.1 340,31.3 			"/>
			<polygon class="st11" points="349.6,47.1 340,52.9 340,31.3 			"/>
			<path class="st11" d="M349.6,50.2c0,0-9.5,13.1-9.7,13.3V56L349.6,50.2z"/>
			<path class="st10" d="M340,56v7.5l-9.7-13.3L340,56L340,56z"/>
		</g>
	</g>
</g>
</svg>
