<svg width="390" height="100" viewBox="0 0 390 100" fill="none" xmlns="http://www.w3.org/2000/svg">
<g clip-path="url(#clip0)">
<rect x="-1" y="1" width="159" height="98" rx="49" transform="matrix(-1 0 0 1 273 0)" stroke="black" stroke-opacity="0.5" stroke-width="2"/>
<g filter="url(#filter0_d)">
<circle r="40" transform="matrix(-1 0 0 1 194 50)" fill="white"/>
</g>
<path d="M295.024 76.6594C295.048 77.2676 295.387 77.8758 296.113 78.1435C303.466 81.1116 376.563 81.1116 383.916 78.1435C384.98 77.7055 385.222 76.5864 384.811 75.7592C384.496 73.9832 383.335 72.5235 381.739 71.8423C382.005 69.969 382.126 68.0713 382.126 66.125C382.126 47.8784 370.661 32.3322 354.6 26.396C352.979 25.7878 351.673 24.5227 351.02 22.8926C350.077 20.5327 347.827 19 345.287 19H334.741C332.226 19 329.952 20.557 329.033 22.9169C328.38 24.547 327.098 25.8121 325.453 26.4203C309.368 32.3809 297.903 47.927 297.903 66.1493C297.903 68.0956 298.048 70.0176 298.314 71.8909C296.427 72.7181 295 74.5428 295 76.6594H295.024Z" fill="#F9C838"/>
<path d="M336.436 53.5592L345.557 58.8678L354.703 53.5592L345.557 38.7099L336.436 53.5592Z" fill="#292C33"/>
<path d="M336.436 56.628L345.557 69.6187L354.703 56.628L345.557 62.2793L336.436 56.628Z" fill="#292C33"/>
<path d="M296.079 78.003C297.781 78.7073 303.102 79.2416 310.342 79.6059L317.797 79.9216L317.269 67.924C316.742 55.8779 319.091 43.8803 324.077 32.9513L328.416 23.4795C327.721 24.8153 326.57 25.8596 325.156 26.3696C309.239 32.3199 297.877 47.839 297.877 66.0297C297.877 67.9726 298.02 69.8912 298.284 71.7613C296.414 72.5871 295 74.4085 295 76.5215H295.048C295.048 77.1286 295.384 77.7358 296.079 78.003Z" fill="#F9AA36"/>
<path d="M49.9002 91.9283C72.5458 91.9283 90.9037 73.3559 90.9037 50.4457C90.9037 27.5355 72.5458 8.96304 49.9002 8.96304C27.2547 8.96304 8.89685 27.5355 8.89685 50.4457C8.89685 73.3559 27.2547 91.9283 49.9002 91.9283Z" fill="#5E464D"/>
<path d="M37.0055 87.2293C38.6828 87.802 44.3159 89.6337 44.5555 87.8426C44.6855 86.8597 41.7126 85.8525 37.6878 83.7203C31.9635 80.695 26.7267 76.8259 22.1531 72.2429C15.4774 65.6973 11.6388 56.7921 11.4636 47.4443C11.1225 34.8948 16.0286 24.7495 24.0985 18.2026C19.2257 21.9636 15.2534 26.7645 12.4711 32.2553C9.6888 37.7461 8.16664 43.7885 8.01555 49.9421C7.77593 59.0192 10.3143 66.6667 15.0823 73.6279C16.5629 75.5402 18.2936 77.2449 20.228 78.6964C24.7971 82.1526 31.478 85.3489 37.0055 87.2253" fill="white"/>
<path d="M91.4682 40.9381C88.9258 28.9814 81.0224 20.611 70.4507 14.6977C78.5206 20.4526 89.9127 32.6895 83.2034 43.4845C77.5175 52.1311 63.6886 50.4376 56.1344 46.3275C47.1507 41.4538 35.8967 30.4882 46.9964 19.7662C54.1809 12.8294 77.0504 20.6069 73.0256 30.9756C70.6781 37.0067 61.5401 35.6664 57.43 32.7179C54.4002 30.541 51.8497 26.8005 53.1981 22.9381C53.6326 21.6994 53.5717 19.7784 51.8213 21.1918C50.5176 22.2477 49.8597 23.986 49.6322 25.6024C47.7193 39.1226 71.8072 49.605 78.9511 36.5234C82.6632 29.7328 76.6524 19.8718 69.0861 15.8348C63.4002 12.7888 57.4787 10.6485 50.2292 11.1684C38.63 11.9806 28.895 19.2504 27.6766 31.1015C26.4581 42.8794 34.3331 53.4795 43.6052 59.8193C53.3524 66.4799 66.4543 70.8702 78.4434 66.8982C89.1898 63.3364 93.6288 51.0021 91.4682 40.934" fill="white"/>
<path d="M76.3437 31.7797C77.4971 24.0307 70.4913 18.7103 64.0216 16.2938C56.3944 13.4508 46.3181 14.6936 40.7622 21.009C36.7009 25.6471 36.9648 32.3808 39.0605 37.8311C42.2284 46.0635 49.3804 52.0134 57.7062 54.5842C63.6195 56.4118 70.7756 57.2078 76.7702 55.2787C85.5142 52.4642 88.3612 43.3464 86.5539 34.9922C86.167 33.1862 85.5728 31.4309 84.7832 29.7612C83.6785 27.4422 80.3157 22.7473 84.9578 28.4656C85.4466 29.1029 85.8968 29.7688 86.3062 30.4598C87.268 32.0397 88.0306 33.7326 88.5765 35.4999C91.1189 43.2977 89.1248 52.3951 82.0783 57.1022C76.6727 60.7047 69.8009 61.1352 63.5301 60.2335C55.1231 59.0151 47.1994 54.9538 41.6923 48.4191C36.6643 42.4611 33.2325 33.9038 35.2997 26.0816C36.8146 20.3592 41.4608 16.0867 47.0248 14.3037C54.0631 12.0253 61.8081 13.0853 68.1438 16.7852C71.3198 18.6331 74.2359 21.1918 75.8401 24.5464C76.5749 26.0577 76.9699 27.7115 76.9976 29.3916C77.0137 30.0721 76.9607 30.7525 76.8392 31.4223C76.7945 31.666 76.2787 32.3524 76.3518 31.7878" fill="#3FE0C5"/>
</g>
<defs>
<filter id="filter0_d" x="144" y="4" width="100" height="100" filterUnits="userSpaceOnUse" color-interpolation-filters="sRGB">
<feFlood flood-opacity="0" result="BackgroundImageFix"/>
<feColorMatrix in="SourceAlpha" type="matrix" values="0 0 0 0 0 0 0 0 0 0 0 0 0 0 0 0 0 0 127 0"/>
<feOffset dy="4"/>
<feGaussianBlur stdDeviation="5"/>
<feColorMatrix type="matrix" values="0 0 0 0 0 0 0 0 0 0 0 0 0 0 0 0 0 0 0.5 0"/>
<feBlend mode="normal" in2="BackgroundImageFix" result="effect1_dropShadow"/>
<feBlend mode="normal" in="SourceGraphic" in2="effect1_dropShadow" result="shape"/>
</filter>
<clipPath id="clip0">
<rect width="390" height="100" fill="white"/>
</clipPath>
</defs>
</svg>
