<svg width="1667" height="200" viewBox="0 0 1667 200" fill="none" xmlns="http://www.w3.org/2000/svg">
<path d="M1332.42 146.784H1361.48C1392.49 146.784 1410.51 128.205 1410.51 97.892C1410.51 69.395 1392.49 49 1361.48 49H1332.42V146.784ZM1343.74 136.726V59.1975H1361.48C1384.94 59.1975 1398.91 74.2842 1398.91 97.892C1398.91 122.478 1384.66 136.726 1361.48 136.726H1343.74Z" fill="#282846"/>
<path d="M1465.12 148.6C1486.92 148.6 1503.12 132.256 1503.12 110.464C1503.12 88.6724 1487.2 72.3285 1465.26 72.3285C1443.61 72.3285 1427.27 88.5327 1427.27 110.464C1427.27 132.535 1443.33 148.6 1465.12 148.6ZM1465.12 138.542C1449.62 138.542 1438.58 126.808 1438.58 110.464C1438.58 94.5394 1449.48 82.3863 1465.12 82.3863C1480.77 82.3863 1491.81 94.3997 1491.81 110.464C1491.81 126.668 1480.77 138.542 1465.12 138.542Z" fill="#282846"/>
<path d="M1557.12 148.6C1572.91 148.6 1587.72 139.101 1591.49 122.897H1580.17C1577.38 132.396 1568.02 138.542 1557.54 138.542C1542.32 138.542 1531.28 126.808 1531.28 110.464C1531.28 94.6791 1541.76 82.3863 1557.26 82.3863C1567.74 82.3863 1576.96 88.5327 1579.89 98.0317H1591.35C1587.44 81.8275 1572.77 72.3285 1556.98 72.3285C1535.61 72.3285 1519.83 88.9518 1519.83 110.464C1519.83 131.977 1535.19 148.6 1557.12 148.6Z" fill="#282846"/>
<path d="M1637.9 148.6C1654.81 148.6 1666.12 139.38 1666.12 125.691C1666.12 95.6569 1622.54 111.023 1622.54 92.5837C1622.54 86.2976 1628.4 81.8275 1637.48 81.8275C1647.12 81.8275 1652.29 86.4373 1653.27 93.2822H1663.89C1662.77 80.1512 1651.59 72.3285 1638.18 72.3285C1622.96 72.3285 1611.92 80.2909 1611.92 92.5837C1611.92 121.36 1655.37 105.854 1655.37 126.249C1655.37 133.653 1649.36 138.961 1638.46 138.961C1627.85 138.961 1621.7 134.351 1620.44 125.691H1609.69C1610.94 139.241 1620.72 148.6 1637.9 148.6Z" fill="#282846"/>
<path d="M305.1 148.7C275 148.7 252.9 126.8 252.9 97.4C252.9 68.3 275.2 46.1 305.3 46.1C335.4 46.1 357.7 68.6 357.7 97.4C357.6 126.5 335.2 148.7 305.1 148.7ZM305.3 130.8C324.3 130.8 337.9 116.7 337.9 97.4C337.9 78.5 324.3 64 305.3 64C286.1 64 272.5 78.4 272.5 97.4C272.5 116.6 286.1 130.8 305.3 130.8ZM377.8 179.4V72.5H396V82H397C399 78.9 405.8 70.7 419.4 70.7C440.3 70.7 454.6 86.3 454.6 109.4C454.6 132.5 440.4 148.7 420 148.7C406.8 148.7 399.7 141.3 397.3 137.2H396.3V179.3H377.8V179.4ZM415.8 132.1C427.7 132.1 435.8 122.9 435.8 109.8C435.8 96.2 427.7 87.5 415.7 87.5C403.5 87.5 395.8 97.3 395.8 109.8C395.8 123.6 404.3 132.1 415.8 132.1ZM507.3 148.7C485.3 148.7 469.7 132.3 469.7 110.1C469.7 86.6 485.5 70.7 507.3 70.7C531.3 70.7 544.3 88.4 544.3 109.3V115.1H487.5C488.1 126.4 495.9 134 507.8 134C516.9 134 523.8 129.8 526.4 123.7H543.6C540 138.8 526.6 148.7 507.3 148.7ZM487.9 102.1H526.8C525.9 92.1 518.1 85.4 507.4 85.4C497 85.4 489 92.8 487.9 102.1ZM564.2 146.9V72.5H581.8V81.5H582.8C585.8 76 593.2 70.6 603.8 70.6C620.5 70.6 630.8 82.3 630.8 98.2V146.8H612.4V103C612.4 94 606.6 87.9 598.1 87.9C589.2 87.9 582.8 95 582.8 104.3V146.9H564.2V146.9ZM649.1 146.9V130.1L700.8 65.2V64.2H651V47.9H724.4V64.6L672.7 129.5V130.6H724.6V146.9H649.1ZM774.5 148.7C752.5 148.7 736.9 132.3 736.9 110.1C736.9 86.6 752.7 70.7 774.5 70.7C798.5 70.7 811.5 88.4 811.5 109.3V115.1H754.7C755.3 126.4 763.1 134 775 134C784.1 134 791 129.8 793.6 123.7H810.8C807.1 138.8 793.8 148.7 774.5 148.7ZM755.1 102.1H794C793.1 92.1 785.3 85.4 774.6 85.4C764.2 85.4 756.2 92.8 755.1 102.1ZM831.4 179.4V72.5H849.6V82H850.6C852.6 78.9 859.4 70.7 873 70.7C893.9 70.7 908.2 86.3 908.2 109.4C908.2 132.5 894 148.7 873.6 148.7C860.4 148.7 853.3 141.3 850.9 137.2H849.9V179.3H831.4V179.4ZM869.4 132.1C881.3 132.1 889.4 122.9 889.4 109.8C889.4 96.2 881.3 87.5 869.3 87.5C857.1 87.5 849.4 97.3 849.4 109.8C849.4 123.6 857.9 132.1 869.4 132.1ZM928 179.4V72.5H946.2V82H947.2C949.2 78.9 956 70.7 969.6 70.7C990.5 70.7 1004.8 86.3 1004.8 109.4C1004.8 132.5 990.6 148.7 970.2 148.7C957 148.7 949.9 141.3 947.5 137.2H946.5V179.3H928V179.4ZM966.1 132.1C978 132.1 986.1 122.9 986.1 109.8C986.1 96.2 978 87.5 966 87.5C953.8 87.5 946.1 97.3 946.1 109.8C946.1 123.6 954.6 132.1 966.1 132.1ZM1057.6 148.7C1035.6 148.7 1020 132.3 1020 110.1C1020 86.6 1035.8 70.7 1057.6 70.7C1081.6 70.7 1094.6 88.4 1094.6 109.3V115.1H1037.8C1038.4 126.4 1046.2 134 1058.1 134C1067.2 134 1074.1 129.8 1076.7 123.7H1093.9C1090.2 138.8 1076.9 148.7 1057.6 148.7ZM1038.1 102.1H1077C1076.1 92.1 1068.3 85.4 1057.6 85.4C1047.2 85.4 1039.3 92.8 1038.1 102.1ZM1132.6 146.9C1119.5 146.9 1112.2 139.1 1112.2 126V40.9H1130.6V124.3C1130.6 128.5 1132.7 130.8 1136.6 130.8H1139.6V146.9H1132.6ZM1166.5 62.6C1159.8 62.6 1155.1 58.5 1155.1 51.9C1155.1 45.5 1159.8 41.3 1166.5 41.3C1173.2 41.3 1177.9 45.5 1177.9 51.9C1177.9 58.5 1173.2 62.6 1166.5 62.6ZM1157.3 146.9V72.5H1175.7V146.9H1157.3ZM1198.2 146.9V72.5H1215.8V81.5H1216.8C1219.8 76 1227.2 70.6 1237.8 70.6C1254.5 70.6 1264.8 82.3 1264.8 98.2V146.8H1246.4V103C1246.4 94 1240.6 87.9 1232.1 87.9C1223.2 87.9 1216.8 95 1216.8 104.3V146.9H1198.2V146.9Z" fill="#282846"/>
<path fill-rule="evenodd" clip-rule="evenodd" d="M179.9 199.1H67.6L85.9 168.5C93.8 155.3 108 147.3 123.4 147.3H179.9V199.1V199.1Z" fill="#63D2F9"/>
<path fill-rule="evenodd" clip-rule="evenodd" d="M0 0H179.9L148.9 51.8H0V0Z" fill="#4E5EE4"/>
<path fill-rule="evenodd" clip-rule="evenodd" d="M71.2 81C79.8 66.6 95.4 57.8 112.2 57.8H145.6L60.5999 199.1H0.199951L71.2 81Z" fill="#63B0F9"/>
</svg>
