<svg version="1.0" xmlns="http://www.w3.org/2000/svg"
 width="1280.000000pt" height="812.000000pt" viewBox="0 0 1280.000000 812.000000"
 preserveAspectRatio="xMidYMid meet">
<g transform="translate(0.000000,812.000000) scale(0.100000,-0.100000)"
fill="#000000" stroke="none">
<path d="M4070 8104 c-1442 -117 -2399 -248 -3066 -419 -446 -115 -764 -262
-899 -417 -55 -64 -96 -157 -103 -233 -4 -54 0 -77 22 -137 50 -139 150 -236
346 -337 298 -153 658 -265 1855 -576 1198 -311 1667 -481 1839 -665 55 -59
53 -68 -23 -124 -125 -92 -374 -185 -1001 -372 -629 -188 -927 -293 -1142
-400 -248 -124 -382 -237 -455 -385 -24 -48 -27 -66 -28 -155 0 -99 1 -102 43
-188 35 -69 61 -105 130 -175 104 -104 202 -171 377 -256 297 -144 616 -236
1530 -440 1092 -243 1588 -392 2061 -620 492 -236 800 -485 1069 -865 99 -139
256 -307 385 -410 264 -211 653 -410 1085 -557 520 -176 1129 -300 1720 -350
l90 -8 -145 -5 c-80 -3 191 -7 602 -8 459 -1 764 2 790 8 24 5 104 17 178 25
466 55 901 193 1138 362 397 282 440 670 125 1115 -82 115 -323 357 -453 454
-534 399 -1274 710 -2380 999 -434 113 -884 212 -1845 405 -1018 204 -1128
228 -1400 297 -342 86 -593 183 -662 255 -18 18 -39 49 -47 68 -13 32 -13 39
1 68 48 100 267 191 829 346 605 168 820 249 986 374 158 119 214 283 153 449
-105 283 -500 502 -1335 742 -493 141 -949 244 -2180 492 -932 188 -1206 246
-1490 316 -480 118 -743 218 -793 301 -62 106 34 213 306 342 373 177 1086
349 1957 471 85 12 170 27 188 35 67 27 78 138 17 178 -30 20 -134 20 -375 0z"/>
</g>
</svg>
