<!-- sample rectangle -->
<svg width="50" height="43" xmlns="http://www.w3.org/2000/svg">
  <g clip-path="url(#clip0_27_1534)"><path fill-rule="evenodd" clip-rule="evenodd" d="M40.6 5.23017L34.908 8.13017L7.422 22.1302C7.32906 21.4213 7.28229 20.7071 7.282 19.9922C7.28576 17.1395 8.0347 14.3374 9.45464 11.8633C10.8746 9.38919 12.9163 7.32896 15.3774 5.8867C17.8386 4.44444 20.6338 3.67018 23.4863 3.64062C26.3388 3.61106 29.1495 4.32722 31.64 5.71817L34.898 4.05817L35.384 3.81017C32.3995 1.64394 28.8741 0.345091 25.1975 0.0571559C21.521 -0.230779 17.8364 0.503418 14.551 2.1786C11.2656 3.85379 8.5074 6.40472 6.58114 9.54948C4.65488 12.6942 3.63562 16.3104 3.636 19.9982C3.636 20.5075 3.65533 21.0148 3.694 21.5202C3.74815 22.2358 3.58944 22.9514 3.23784 23.5771C2.88623 24.2027 2.35744 24.7104 1.718 25.0362L0 25.9122V29.9982L5.058 27.4202L6.696 26.5842L8.31 25.7622L37.286 10.9982L40.542 9.34017L47.272 5.91017V1.82617L40.6 5.23017ZM47.272 10L9.956 29L6.7 30.662L0 34.076V38.158L6.654 34.768L12.346 31.868L39.86 17.848C39.953 18.5616 39.9998 19.2804 40 20C39.9982 22.8559 39.2495 25.6617 37.8282 28.1388C36.4069 30.6159 34.3624 32.6782 31.8976 34.1209C29.4329 35.5637 26.6337 36.3366 23.7779 36.3631C20.9221 36.3896 18.1091 35.6687 15.618 34.272L15.418 34.378L11.886 36.178C14.8699 38.3443 18.3945 39.6435 22.0705 39.9322C25.7465 40.2208 29.4307 39.4876 32.7161 37.8135C36.0014 36.1395 38.7601 33.5898 40.6872 30.4461C42.6143 27.3025 43.6348 23.6873 43.636 20C43.636 19.486 43.616 18.972 43.578 18.464C43.5239 17.7486 43.6825 17.0332 44.0337 16.4077C44.3849 15.7821 44.9131 15.2743 45.552 14.948L47.272 14.072V10ZM93.3438 23.6699C93.3438 17.0359 97.7718 12.8359 103.48 " fill="currentColor"></path></g>
</svg>